<mxfile host="65bd71144e">
    <diagram id="8F-IT0gddp71lfpkDYcI" name="Страница 1">
        <mxGraphModel dx="942" dy="328" grid="1" gridSize="10" guides="1" tooltips="1" connect="1" arrows="1" fold="1" page="1" pageScale="1" pageWidth="827" pageHeight="1169" math="0" shadow="0">
            <root>
                <mxCell id="0"/>
                <mxCell id="1" parent="0"/>
                <mxCell id="6" style="edgeStyle=none;html=1;exitX=0.5;exitY=0;exitDx=0;exitDy=0;entryX=0.5;entryY=1;entryDx=0;entryDy=0;" edge="1" parent="1" source="2" target="3">
                    <mxGeometry relative="1" as="geometry"/>
                </mxCell>
                <mxCell id="2" value="USER&lt;br&gt;&lt;br&gt;ID: Int&lt;br&gt;Login:" style="whiteSpace=wrap;html=1;aspect=fixed;" vertex="1" parent="1">
                    <mxGeometry x="407.5" y="250" width="90" height="90" as="geometry"/>
                </mxCell>
                <mxCell id="3" value="Tasks:&lt;br&gt;ID: Int&lt;br&gt;Title:&lt;br&gt;Desc:char&lt;br&gt;Date:&lt;br&gt;Date:&lt;br&gt;Creator:&lt;br&gt;Executer:" style="whiteSpace=wrap;html=1;aspect=fixed;" vertex="1" parent="1">
                    <mxGeometry x="405" y="40" width="125" height="125" as="geometry"/>
                </mxCell>
                <mxCell id="8" style="edgeStyle=none;html=1;exitX=0.5;exitY=0;exitDx=0;exitDy=0;entryX=0.5;entryY=1;entryDx=0;entryDy=0;" edge="1" parent="1" source="7" target="3">
                    <mxGeometry relative="1" as="geometry"/>
                </mxCell>
                <mxCell id="7" value="USER&lt;br&gt;&lt;br&gt;ID: Int&lt;br&gt;Login:" style="whiteSpace=wrap;html=1;aspect=fixed;" vertex="1" parent="1">
                    <mxGeometry x="530" y="180" width="90" height="90" as="geometry"/>
                </mxCell>
            </root>
        </mxGraphModel>
    </diagram>
</mxfile>